<?xml version="1.0" encoding="utf-8"?>
<!-- Generator: Adobe Illustrator 19.0.0, SVG Export Plug-In . SVG Version: 6.00 Build 0)  -->
<svg version="1.1" id="_x34__column_grid" xmlns="http://www.w3.org/2000/svg" xmlns:xlink="http://www.w3.org/1999/xlink" x="0px"
	 y="0px" viewBox="0 0 100 100" style="enable-background:new 0 0 100 100;" xml:space="preserve">
<style type="text/css">
	.st0{fill-rule:evenodd;clip-rule:evenodd;fill:#D9D9D9;}
	.st1{fill-rule:evenodd;clip-rule:evenodd;fill:#999999;}
	.st2{fill-rule:evenodd;clip-rule:evenodd;fill:#737373;}
	.st3{fill-rule:evenodd;clip-rule:evenodd;fill:#FFFFFF;}
	.st4{fill:#288FB4;}
	.st5{fill-rule:evenodd;clip-rule:evenodd;fill:#FFA99A;}
	.st6{fill-rule:evenodd;clip-rule:evenodd;fill:#FFDDD7;}
	.st7{fill:#FFDDD7;}
</style>
<path class="st0" d="M0,0h100v100H0V0z"/>
<polygon class="st1" points="100,24.3 88,12 87,78 20.3,78.2 12,88 24.9,100 100,100 "/>
<path class="st2" d="M0,0v100h100V0H0z M98,98H2V2h96V98z"/>
<g>
	<rect x="13" y="13.1" class="st3" width="74" height="74"/>
	<path class="st4" d="M86,14.1v72H14v-72H86 M88,12.1H12v76h76V12.1L88,12.1z"/>
</g>
<rect x="18" y="18" class="st5" width="13" height="64"/>
<rect x="35" y="18" class="st5" width="13" height="64"/>
<rect x="52" y="18" class="st6" width="13" height="64"/>
<g>
	<path class="st7" d="M82,18h-3v1h2v3h1V18L82,18z M76,18h-3v1h3V18L76,18z M70,18h-1v1l0,0c0,0.5,0,1,0,1h1V18L70,18z M70,23h-1v3
		h1V23L70,23z M70,29h-1v3h1V29L70,29z M70,35h-1v3h1V35L70,35z M70,41h-1v3h1V41L70,41z M70,47h-1v3h1V47L70,47z M70,53h-1v3h1V53
		L70,53z M70,59h-1v3h1V59L70,59z M70,65h-1v3h1V65L70,65z M70,71h-1v3h1V71L70,71z M70,77h-1v3h1V77L70,77z M73,81h-3v1h3V81L73,81
		z M79,81h-3v1h3V81L79,81z M82,79h-1v3h1V79L82,79z M82,73h-1v3h1V73L82,73z M82,67h-1v3h1V67L82,67z M82,61h-1v3h1V61L82,61z
		 M82,55h-1v3h1V55L82,55z M82,49h-1v3h1V49L82,49z M82,43h-1v3h1V43L82,43z M82,37h-1v3h1V37L82,37z M82,31h-1v3h1V31L82,31z
		 M82,25h-1v3h1V25L82,25z"/>
</g>
<path class="st2" d="M0,0v100h100V0 M98,98H2V2h96V98z"/>
</svg>
