<?xml version="1.0" encoding="utf-8"?>
<!-- Generator: Adobe Illustrator 19.0.0, SVG Export Plug-In . SVG Version: 6.00 Build 0)  -->
<svg version="1.1" id="BigIconTextButton" xmlns="http://www.w3.org/2000/svg" xmlns:xlink="http://www.w3.org/1999/xlink" x="0px"
	 y="0px" viewBox="0 0 100 100" style="enable-background:new 0 0 100 100;" xml:space="preserve">
<style type="text/css">
	.st0{fill-rule:evenodd;clip-rule:evenodd;fill:#D3D3D3;}
	.st1{fill-rule:evenodd;clip-rule:evenodd;fill:#999999;}
	.st2{fill-rule:evenodd;clip-rule:evenodd;fill:#FFFFFF;}
	.st3{fill:#FF5335;}
	.st4{fill-rule:evenodd;clip-rule:evenodd;fill:#288FB4;}
	.st5{fill-rule:evenodd;clip-rule:evenodd;fill:#737373;}
</style>
<path class="st0" d="M0,0h100v100H0V0z"/>
<polygon class="st1" points="100,24.3 88,12 87,78 20.3,78.2 12,88 24.9,100 100,100 "/>
<g>
	<rect x="13" y="13.1" class="st2" width="74" height="74"/>
	<path class="st3" d="M86,14.1v72H14v-72H86 M88,12.1H12v76h76V12.1L88,12.1z"/>
</g>
<circle class="st4" cx="50.5" cy="29.5" r="11.5"/>
<rect x="29" y="44" class="st5" width="42" height="8"/>
<rect x="18" y="58" class="st5" width="64" height="4"/>
<g>
	<rect x="33" y="70" class="st2" width="34" height="8"/>
	<path class="st3" d="M65,72v4H35v-4H65 M69,68H31v12h38V68L69,68z"/>
</g>
</svg>
