<?xml version="1.0" encoding="utf-8"?>
<svg version="1.1" id="Button" xmlns="http://www.w3.org/2000/svg" xmlns:xlink="http://www.w3.org/1999/xlink" x="0px" y="0px"
	 viewBox="0 0 100 100" style="enable-background:new 0 0 100 100;" xml:space="preserve">
<style type="text/css">
	.st0{fill-rule:evenodd;clip-rule:evenodd;fill:#D3D3D3;}
	.st1{fill-rule:evenodd;clip-rule:evenodd;fill:#999999;}
	.st2{fill-rule:evenodd;clip-rule:evenodd;fill:#CC4729;}
	.st3{fill-rule:evenodd;clip-rule:evenodd;fill:#F85B30;}
	.st4{fill:#FFFFFF;}
</style>
<g>
	<path class="st0" d="M0,0h100v100H0V0z"/>
	<polygon class="st1" points="100,50.6 88,38.1 88,54.5 88,59.3 12,60 55,100 100,100 	"/>
	<g>
		<polygon class="st2" points="88,62 14.6,62 12,60 14.6,38.1 86,36 88,38.1 		"/>
	</g>
	<g>
		<rect x="12" y="36" class="st3" width="74" height="24"/>
	</g>
	<g>
		<path class="st4" d="M21.7,44.1h4.8c0.8,0,1.4,0.2,1.8,0.6c0.4,0.4,0.6,0.9,0.6,1.5c0,0.5-0.2,0.9-0.5,1.2
			c-0.2,0.2-0.5,0.4-0.9,0.5c0.6,0.1,1,0.4,1.3,0.7c0.3,0.3,0.4,0.8,0.4,1.3c0,0.4-0.1,0.8-0.3,1.1c-0.2,0.3-0.5,0.6-0.8,0.8
			c-0.2,0.1-0.5,0.2-1,0.3c-0.6,0.1-1,0.1-1.1,0.1h-4.4V44.1z M24.2,47.3h1.1c0.4,0,0.7-0.1,0.8-0.2s0.2-0.3,0.2-0.6
			c0-0.2-0.1-0.4-0.2-0.6c-0.2-0.1-0.4-0.2-0.8-0.2h-1.1V47.3z M24.2,50.5h1.3c0.4,0,0.7-0.1,0.9-0.2c0.2-0.2,0.3-0.4,0.3-0.6
			c0-0.2-0.1-0.4-0.3-0.6c-0.2-0.1-0.5-0.2-0.9-0.2h-1.3V50.5z"/>
		<path class="st4" d="M36.2,44.1h2.5v4.9c0,0.5-0.1,0.9-0.2,1.4c-0.2,0.4-0.4,0.8-0.7,1.1c-0.3,0.3-0.7,0.5-1,0.7
			c-0.5,0.2-1.1,0.3-1.8,0.3c-0.4,0-0.8,0-1.3-0.1c-0.5-0.1-0.9-0.2-1.2-0.3c-0.3-0.2-0.6-0.4-0.9-0.7c-0.3-0.3-0.4-0.6-0.5-0.9
			c-0.2-0.5-0.2-1-0.2-1.4v-4.9h2.5v5c0,0.4,0.1,0.8,0.4,1.1c0.2,0.3,0.6,0.4,1,0.4c0.4,0,0.8-0.1,1-0.4s0.4-0.6,0.4-1.1V44.1z"/>
		<path class="st4" d="M40.4,44.1h7.7v2h-2.6v6.2H43v-6.2h-2.6V44.1z"/>
		<path class="st4" d="M49.3,44.1H57v2h-2.6v6.2h-2.5v-6.2h-2.6V44.1z"/>
		<path class="st4" d="M58,48.2c0-1.3,0.4-2.4,1.1-3.1c0.7-0.7,1.8-1.1,3.1-1.1c1.4,0,2.4,0.4,3.2,1.1s1.1,1.8,1.1,3.1
			c0,1-0.2,1.7-0.5,2.4s-0.8,1.1-1.4,1.4s-1.4,0.5-2.3,0.5c-0.9,0-1.7-0.1-2.3-0.4s-1.1-0.8-1.5-1.4C58.2,49.9,58,49.1,58,48.2z
			 M60.6,48.2c0,0.8,0.2,1.4,0.5,1.8c0.3,0.4,0.7,0.5,1.3,0.5c0.5,0,1-0.2,1.3-0.5c0.3-0.4,0.4-1,0.4-1.9c0-0.8-0.2-1.3-0.5-1.7
			c-0.3-0.4-0.7-0.5-1.3-0.5c-0.5,0-0.9,0.2-1.2,0.5C60.7,46.7,60.6,47.3,60.6,48.2z"/>
		<path class="st4" d="M68.5,44.1h2.4l3.1,4.5v-4.5h2.4v8.2H74l-3.1-4.5v4.5h-2.4V44.1z"/>
	</g>
</g>
</svg>
