<?xml version="1.0" encoding="utf-8"?>
<svg version="1.1" id="Contact" xmlns="http://www.w3.org/2000/svg" xmlns:xlink="http://www.w3.org/1999/xlink" x="0px" y="0px"
	 viewBox="0 0 100 100" style="enable-background:new 0 0 100 100;" xml:space="preserve">
<style type="text/css">
	.st0{fill-rule:evenodd;clip-rule:evenodd;fill:#D3D3D3;}
	.st1{fill:#999999;}
	.st2{fill:#FFFFFF;}
	.st3{fill:#4BB4DA;}
	.st4{fill:none;stroke:#F85B30;stroke-width:2;stroke-miterlimit:10;}
	.st5{fill:#FFFFFF;stroke:#F85B30;stroke-width:2;stroke-miterlimit:10;}
	.st6{fill:#F85B30;}
</style>
<path class="st0" d="M0,0h100v100H0V0z"/>
<polygon class="st1" points="80,30.8 80,69.2 20,69.2 41.5,100 100,100 100,55.5 "/>
<g>
	<g>
		<rect x="21" y="31.8" class="st2" width="58" height="36.4"/>
		<path class="st3" d="M78,32.8v34.4H22V32.8H78 M80,30.8H20v38.4h60V30.8L80,30.8z"/>
	</g>
	<polyline class="st4" points="20.9,68.4 50,43.7 79.1,68.4 	"/>
	<polyline class="st5" points="20.9,31.9 50,56.6 79.1,31.9 	"/>
	<g>
		<path class="st6" d="M78,32.8v34.4H22V32.8H78 M80,30.8H20v38.4h60V30.8L80,30.8z"/>
	</g>
</g>
</svg>
