<?xml version="1.0" encoding="utf-8"?>
<!-- Generator: Adobe Illustrator 19.0.0, SVG Export Plug-In . SVG Version: 6.00 Build 0)  -->
<svg version="1.1" id="Layer_1" xmlns="http://www.w3.org/2000/svg" xmlns:xlink="http://www.w3.org/1999/xlink" x="0px" y="0px"
	 viewBox="-412 290.3 16 16" style="enable-background:new -412 290.3 16 16;" xml:space="preserve">
<style type="text/css">
	.st0{fill:#FFFFFF;}
	.st1{fill:#999999;}
	.st2{fill:#5599FF;}
	.st3{fill:#B9B9B9;}
	.st4{fill:#666666;}
</style>
<path class="st0" d="M-411,291.3h14v14h-14V291.3z"/>
<path class="st1" d="M-398,292.2v12h-12v-12H-398 M-397,291.2h-14v14h14V291.2z"/>
<path class="st2" d="M-409,295.2h6v6h-6V295.2z"/>
<path class="st0" d="M-405,300.3h-3l0.8-1l0.8-1l0.8,1L-405,300.3z"/>
<path class="st0" d="M-404,300.3h-2.7l0.7-0.7l0.7-0.7l0.7,0.7L-404,300.3z"/>
<ellipse class="st0" cx="-404.5" cy="297.8" rx="0.5" ry="0.5"/>
<g>
	<path class="st3" d="M-402,297.7h3v1h-3V297.7z M-402,299.4h3v1h-3V299.4z"/>
	<path class="st4" d="M-402,296.1h3v1h-3V296.1z"/>
</g>
</svg>
