<?xml version="1.0" encoding="utf-8"?>
<!-- Generator: Adobe Illustrator 19.0.0, SVG Export Plug-In . SVG Version: 6.00 Build 0)  -->
<svg version="1.1" id="contact_copy" xmlns="http://www.w3.org/2000/svg" xmlns:xlink="http://www.w3.org/1999/xlink" x="0px"
	 y="0px" viewBox="0 0 100 100" style="enable-background:new 0 0 100 100;" xml:space="preserve">
<style type="text/css">
	.st0{fill-rule:evenodd;clip-rule:evenodd;fill:#D3D3D3;}
	.st1{fill:#FFFFFF;}
	.st2{fill:#FF5335;}
	.st3{fill:#999999;}
</style>
<path class="st0" d="M0,0h100v100H0V0z"/>
<g>
	<polygon class="st1" points="50,55.3 21.3,30.1 78.7,30.1 	"/>
	<g>
		<g>
			<path class="st2" d="M15,26.6V73h70V26.6H15z M50,55.3L21.3,30.1h57.4L50,55.3z M38.5,49.8L18.4,67.5V32.2L38.5,49.8z M41.1,52.1
				l8.8,7.8l8.8-7.8l19.9,17.5H21.2L41.1,52.1z M61.4,49.8l20.1-17.7v35.3L61.4,49.8z M61.4,49.8"/>
		</g>
		<g>
			<polygon class="st1" points="38.5,49.8 18.4,67.5 18.4,32.2 			"/>
			<polygon class="st1" points="41.1,52.1 50,59.9 58.8,52.1 78.7,69.6 21.2,69.6 			"/>
			<polygon class="st1" points="61.4,49.8 81.5,32.2 81.5,67.5 			"/>
		</g>
	</g>
</g>
<polygon class="st3" points="85,27.1 85,73 14.8,73 35,100 100,100 100,47.2 "/>
</svg>
