<?xml version="1.0" encoding="utf-8"?>
<!-- Generator: Adobe Illustrator 19.0.0, SVG Export Plug-In . SVG Version: 6.00 Build 0)  -->
<svg version="1.1" id="copyright" xmlns="http://www.w3.org/2000/svg" xmlns:xlink="http://www.w3.org/1999/xlink" x="0px" y="0px"
	 viewBox="0 0 100 100" style="enable-background:new 0 0 100 100;" xml:space="preserve">
<style type="text/css">
	.st0{fill-rule:evenodd;clip-rule:evenodd;fill:#D3D3D3;}
	.st1{fill-rule:evenodd;clip-rule:evenodd;fill:#999999;}
	.st2{fill:#FFFFFF;}
	.st3{fill:#FF5335;}
	.st4{font-family:'Helvetica-Bold';}
	.st5{font-size:56.714px;}
</style>
<path class="st0" d="M0,0h100v100H0V0z"/>
<polygon class="st1" points="100,100 100,39 75,21 51,38 30,77 57.3,100 100,100 "/>
<g>
	<g>
		<path class="st2" d="M51,80.6c-18.6,0-33.7-14.9-33.7-33.1c0-18.3,15.1-33.1,33.7-33.1c18.6,0,33.7,14.9,33.7,33.1
			C84.7,65.8,69.6,80.6,51,80.6z"/>
		<path class="st3" d="M51,17.2c17,0,30.9,13.6,30.9,30.3S68,77.8,51,77.8S20.1,64.2,20.1,47.5S34,17.2,51,17.2 M51,11.6
			c-20.2,0-36.5,16.1-36.5,36s16.4,36,36.5,36s36.5-16.1,36.5-36S71.2,11.6,51,11.6L51,11.6z"/>
	</g>
	<text transform="matrix(1.1139 0 0 1 27.3774 68.0166)" class="st3 st4 st5">C</text>
</g>
</svg>
