<?xml version="1.0" encoding="utf-8"?>
<svg version="1.1" id="IconTextButton" xmlns="http://www.w3.org/2000/svg" xmlns:xlink="http://www.w3.org/1999/xlink" x="0px"
	 y="0px" viewBox="0 0 100 100" style="enable-background:new 0 0 100 100;" xml:space="preserve">
<style type="text/css">
	.st0{fill-rule:evenodd;clip-rule:evenodd;fill:#D3D3D3;}
	.st1{fill-rule:evenodd;clip-rule:evenodd;fill:#999999;}
	.st2{fill-rule:evenodd;clip-rule:evenodd;fill:#FFFFFF;}
	.st3{fill:#F85B30;}
	.st4{fill-rule:evenodd;clip-rule:evenodd;fill:#4BB4DA;}
	.st5{fill-rule:evenodd;clip-rule:evenodd;fill:#F85B30;}
	.st6{fill-rule:evenodd;clip-rule:evenodd;fill:#58595B;}
</style>
<path class="st0" d="M0,0h100v100H0V0z"/>
<polygon class="st1" points="100,24.3 88,12 87,78 20.3,78.2 12,88 24.9,100 100,100 "/>
<g>
	<rect x="13" y="13.1" class="st2" width="74" height="74"/>
	<path class="st3" d="M86,14.1v72H14v-72H86 M88,12.1H12v76h76V12.1L88,12.1z"/>
</g>
<circle class="st4" cx="25" cy="26" r="7"/>
<g>
	<rect x="18" y="72" class="st5" width="27.7" height="8"/>
</g>
<rect x="36" y="24" class="st6" width="46" height="5"/>
<rect x="18" y="36" class="st6" width="64" height="3"/>
<rect x="18" y="43" class="st6" width="64" height="3"/>
<rect x="18" y="50" class="st6" width="64" height="3"/>
<rect x="18" y="57" class="st6" width="64" height="3"/>
<rect x="18" y="64" class="st6" width="64" height="3"/>
</svg>
