<?xml version="1.0" encoding="utf-8"?>
<!-- Generator: Adobe Illustrator 19.0.0, SVG Export Plug-In . SVG Version: 6.00 Build 0)  -->
<svg version="1.1" id="ImageTextLink" xmlns="http://www.w3.org/2000/svg" xmlns:xlink="http://www.w3.org/1999/xlink" x="0px"
	 y="0px" viewBox="0 0 100 100" style="enable-background:new 0 0 100 100;" xml:space="preserve">
<style type="text/css">
	.st0{fill-rule:evenodd;clip-rule:evenodd;fill:#D3D3D3;}
	.st1{fill-rule:evenodd;clip-rule:evenodd;fill:#999999;}
	.st2{fill-rule:evenodd;clip-rule:evenodd;fill:#FFFFFF;}
	.st3{fill:#FF5335;}
	.st4{fill-rule:evenodd;clip-rule:evenodd;fill:#737373;}
	.st5{fill:#53A5C3;}
	.st6{fill-rule:evenodd;clip-rule:evenodd;fill:#3E9ABC;}
	.st7{fill-rule:evenodd;clip-rule:evenodd;fill:#7EBCD2;}
	.st8{fill-rule:evenodd;clip-rule:evenodd;fill:#93C7D9;}
	.st9{font-family:'Arial-Black';}
	.st10{font-size:10.1598px;}
	.st11{letter-spacing:1.4;}
</style>
<path class="st0" d="M0,0h100v100H0V0z"/>
<polygon class="st1" points="100,24.3 88,12 87,78 20.3,78.2 12,88 24.9,100 100,100 "/>
<g>
	<rect x="13" y="13.1" class="st2" width="74" height="74"/>
	<path class="st3" d="M86,14.1v72H14v-72H86 M88,12.1H12v76h76V12.1L88,12.1z"/>
</g>
<rect x="18" y="53" class="st4" width="42" height="8"/>
<rect x="18" y="66" class="st4" width="64" height="4"/>
<g>
	<rect x="19" y="19" class="st2" width="62" height="29"/>
	<path class="st5" d="M80,20v27H20V20H80 M82,18H18v31h64V18L82,18z"/>
</g>
<polygon class="st6" points="43.8,29.5 29,47 58.7,47 "/>
<polygon class="st7" points="58.8,23.6 38.9,47 78.7,47 "/>
<ellipse class="st8" cx="30.3" cy="27.9" rx="4.7" ry="4.5"/>
<text transform="matrix(1.4251 0 0 1 17 82)" class="st3 st9 st10 st11">link</text>
</svg>
