<?xml version="1.0" encoding="utf-8"?>
<!-- Generator: Adobe Illustrator 19.0.0, SVG Export Plug-In . SVG Version: 6.00 Build 0)  -->
<svg version="1.1" id="ImageTextLink" xmlns="http://www.w3.org/2000/svg" xmlns:xlink="http://www.w3.org/1999/xlink" x="0px"
	 y="0px" viewBox="0 0 100 100" style="enable-background:new 0 0 100 100;" xml:space="preserve">
<style type="text/css">
	.st0{fill-rule:evenodd;clip-rule:evenodd;fill:#D9D9D9;}
	.st1{fill-rule:evenodd;clip-rule:evenodd;fill:#999999;}
	.st2{fill-rule:evenodd;clip-rule:evenodd;fill:#737373;}
	.st3{fill-rule:evenodd;clip-rule:evenodd;fill:#FFFFFF;}
	.st4{fill:#EA8E55;}
	.st5{fill-rule:evenodd;clip-rule:evenodd;fill:#A7A9AC;}
	.st6{fill-rule:evenodd;clip-rule:evenodd;fill:#BCBEC0;}
	.st7{font-family:'Arial-Black';}
	.st8{font-size:10.1598px;}
	.st9{letter-spacing:1.4;}
</style>
<path class="st0" d="M0,0h100v100H0V0z"/>
<polygon class="st1" points="100,24.3 88,12 87,78 20.3,78.2 12,88 24.9,100 100,100 "/>
<path class="st2" d="M0,0v100h100V0H0z M98,98H2V2h96V98z"/>
<g>
	<rect x="13" y="13.1" class="st3" width="74" height="74"/>
	<path class="st4" d="M86,14.1v72H14v-72H86 M88,12.1H12v76h76V12.1L88,12.1z"/>
</g>
<rect x="18" y="53" class="st2" width="42" height="8"/>
<rect x="18" y="66" class="st2" width="64" height="4"/>
<g>
	<rect x="19" y="19" class="st3" width="62" height="29"/>
	<path class="st4" d="M80,20v27H20V20H80 M82,18H18v31h64V18L82,18z"/>
</g>
<polygon class="st5" points="43.8,29.5 29,47 58.7,47 "/>
<polygon class="st6" points="58.8,23.6 38.9,47 78.7,47 "/>
<ellipse class="st5" cx="30.3" cy="27.9" rx="4.7" ry="4.5"/>
<text transform="matrix(1.4251 0 0 1 17 82)" class="st4 st7 st8 st9">link</text>
</svg>
