<?xml version="1.0" encoding="utf-8"?>
<svg version="1.1" id="LogoCarousel" xmlns="http://www.w3.org/2000/svg" xmlns:xlink="http://www.w3.org/1999/xlink" x="0px"
	 y="0px" viewBox="0 0 100 100" style="enable-background:new 0 0 100 100;" xml:space="preserve">
<style type="text/css">
	.st0{fill-rule:evenodd;clip-rule:evenodd;fill:#D3D3D3;}
	.st1{fill-rule:evenodd;clip-rule:evenodd;fill:#999999;}
	.st2{fill-rule:evenodd;clip-rule:evenodd;fill:#FFFFFF;}
	.st3{fill:#4BB4DA;}
	.st4{fill:none;stroke:#58595B;stroke-width:4;stroke-linecap:square;stroke-miterlimit:10;}
	.st5{fill-rule:evenodd;clip-rule:evenodd;fill:#FFFFFF;stroke:#F85B30;stroke-width:3;stroke-miterlimit:10;}
</style>
<g>
	<path class="st0" d="M0,0h100v100H0V0z"/>
	<polygon class="st1" points="100,56.5 78,37 61,43 50,32 18,65 53,100 100,100 	"/>
	<g>
		<rect x="19.5" y="33.5" class="st2" width="29" height="30"/>
		<path class="st3" d="M47,35v27H21V35H47 M50,32H18v33h32V32L50,32z"/>
	</g>
	<g>
		<line class="st4" x1="15" y1="41" x2="8" y2="48"/>
		<line class="st4" x1="15" y1="55" x2="8" y2="48"/>
	</g>
	<g>
		<line class="st4" x1="86" y1="41" x2="93" y2="48"/>
		<line class="st4" x1="86" y1="55" x2="93" y2="48"/>
	</g>
	<ellipse class="st5" cx="67" cy="47.5" rx="14" ry="13.5"/>
</g>
</svg>
