<?xml version="1.0" encoding="utf-8"?>
<svg version="1.1" id="Quote" xmlns="http://www.w3.org/2000/svg" xmlns:xlink="http://www.w3.org/1999/xlink" x="0px" y="0px"
	 viewBox="0 0 100 100" style="enable-background:new 0 0 100 100;" xml:space="preserve">
<style type="text/css">
	.st0{fill-rule:evenodd;clip-rule:evenodd;fill:#D3D3D3;}
	.st1{fill-rule:evenodd;clip-rule:evenodd;fill:#999999;}
	.st2{fill-rule:evenodd;clip-rule:evenodd;fill:#FFFFFF;}
	.st3{fill:#F85B30;}
	.st4{fill:#4BB4DA;}
	.st5{clip-path:url(#SVGID_2_);}
	.st6{fill-rule:evenodd;clip-rule:evenodd;fill:#58595B;}
</style>
<g>
	<path class="st0" d="M0,0h100v100H0V0z"/>
	<polygon class="st1" points="98.3,100 100,98.3 100,36 85,21.4 73.5,29 14,72 42.3,100 	"/>
	<g>
		<polygon class="st2" points="68.4,71 15,71 15,22 84,22 84,71 77.8,71 77.8,80.5 		"/>
		<path class="st3" d="M83,23v47h-4.2h-2v2v6.1l-7.3-7.5L68.9,70H68H16V23H83 M85,21H14v51h54l10.8,11V72H85V21L85,21z"/>
	</g>
	<g>
		<path class="st4" d="M36,38l3.7-0.2c0,1.5-0.4,2.8-1.1,3.7c-0.7,0.9-1.9,1.7-3.6,2.2l1.6,3.3c1.8-0.6,3.2-1.4,4.4-2.5
			c1.2-1.1,1.9-2.2,2.4-3.5c0.4-1.3,0.6-3.1,0.6-5.4V30l-8,0V38z M22,38l3.7-0.2c0,1.5-0.4,2.8-1.1,3.7c-0.7,0.9-1.9,1.7-3.6,2.2
			l1.6,3.3c1.8-0.6,3.2-1.4,4.4-2.5c1.2-1.1,1.9-2.2,2.4-3.5c0.4-1.3,0.6-3.1,0.6-5.4V30l-8,0V38z"/>
	</g>
	<g>
		<defs>
			<path id="SVGID_1_" d="M80,67V24l-30,0v23l-30,0v20H80z"/>
		</defs>
		<clipPath id="SVGID_2_">
			<use xlink:href="#SVGID_1_"  style="overflow:visible;"/>
		</clipPath>
		<g class="st5">
			<path class="st6" d="M22,30h56v4H22V30z"/>
			<path class="st6" d="M22,50h56v4H22V50z"/>
			<path class="st6" d="M22,60h56v4H22V60z"/>
			<path class="st6" d="M22,40h56v4H22V40z"/>
		</g>
	</g>
</g>
</svg>
