<?xml version="1.0" encoding="utf-8"?>
<!-- Generator: Adobe Illustrator 19.0.0, SVG Export Plug-In . SVG Version: 6.00 Build 0)  -->
<svg version="1.1" id="quote" xmlns="http://www.w3.org/2000/svg" xmlns:xlink="http://www.w3.org/1999/xlink" x="0px" y="0px"
	 viewBox="0 0 100 100" style="enable-background:new 0 0 100 100;" xml:space="preserve">
<style type="text/css">
	.st0{fill-rule:evenodd;clip-rule:evenodd;fill:#D9D9D9;}
	.st1{fill-rule:evenodd;clip-rule:evenodd;fill:#999999;}
	.st2{fill-rule:evenodd;clip-rule:evenodd;fill:#737373;}
	.st3{fill-rule:evenodd;clip-rule:evenodd;fill:#EA8E55;}
	.st4{fill-rule:evenodd;clip-rule:evenodd;fill:#FFFFFF;}
	.st5{fill:#EA8E55;}
	.st6{clip-path:url(#SVGID_2_);}
</style>
<path class="st0" d="M0,0h100v100H0V0z"/>
<polygon class="st1" points="98,100 100,98 100,27 89.9,17 69.4,17 10,76.7 33.4,100 "/>
<path class="st2" d="M0,0v100h100V0H0z M98,98H2V2h96V98z"/>
<g>
	<path class="st3" d="M10,17h80v60H10V17z"/>
	<path class="st3" d="M83,75H69l14,15V75z"/>
</g>
<g>
	<path class="st4" d="M14,21h72v52H14V21z"/>
	<path class="st4" d="M79,65H65l14,15V65z"/>
</g>
<g>
	<path class="st5" d="M36,38l3.7-0.2c0,1.5-0.4,2.8-1.1,3.7c-0.7,0.9-1.9,1.7-3.6,2.2l1.6,3.3c1.8-0.6,3.2-1.4,4.4-2.5
		c1.2-1.1,1.9-2.2,2.4-3.5c0.4-1.3,0.6-3.1,0.6-5.4V30l-8,0V38z M22,38l3.7-0.2c0,1.5-0.4,2.8-1.1,3.7c-0.7,0.9-1.9,1.7-3.6,2.2
		l1.6,3.3c1.8-0.6,3.2-1.4,4.4-2.5c1.2-1.1,1.9-2.2,2.4-3.5c0.4-1.3,0.6-3.1,0.6-5.4V30l-8,0V38z"/>
</g>
<g>
	<defs>
		<path id="SVGID_1_" d="M80,67V24l-30,0v23l-30,0v20H80z"/>
	</defs>
	<clipPath id="SVGID_2_">
		<use xlink:href="#SVGID_1_"  style="overflow:visible;"/>
	</clipPath>
	<g class="st6">
		<path class="st2" d="M22,30h56v4H22V30z"/>
		<path class="st2" d="M22,50h56v4H22V50z"/>
		<path class="st2" d="M22,60h56v4H22V60z"/>
		<path class="st2" d="M22,40h56v4H22V40z"/>
	</g>
</g>
</svg>
