<?xml version="1.0" encoding="utf-8"?>
<svg version="1.1" id="ResponsiveVideo" xmlns="http://www.w3.org/2000/svg" xmlns:xlink="http://www.w3.org/1999/xlink" x="0px"
	 y="0px" viewBox="0 0 100 100" style="enable-background:new 0 0 100 100;" xml:space="preserve">
<style type="text/css">
	.st0{fill-rule:evenodd;clip-rule:evenodd;fill:#D3D3D3;}
	.st1{fill-rule:evenodd;clip-rule:evenodd;fill:#999999;}
	.st2{fill-rule:evenodd;clip-rule:evenodd;fill:#FFFFFF;}
	.st3{fill:#F85B30;}
	.st4{fill-rule:evenodd;clip-rule:evenodd;fill:#B7E1F0;}
	.st5{fill:#4BB4DA;}
	.st6{fill-rule:evenodd;clip-rule:evenodd;fill:#4599B7;}
	.st7{fill-rule:evenodd;clip-rule:evenodd;fill:#6FC3E1;}
	.st8{fill:#FFFFFF;}
	.st9{fill-rule:evenodd;clip-rule:evenodd;fill:#4BB4DA;}
</style>
<path class="st0" d="M0,0h100v100H0V0z"/>
<polygon class="st1" points="100,24.3 88,12 87,78 20.3,78.2 12,88 24.9,100 100,100 "/>
<g>
	<rect x="13" y="13.1" class="st2" width="74" height="74"/>
	<path class="st3" d="M86,14.1v72H14v-72H86 M88,12.1H12v76h76V12.1L88,12.1z"/>
</g>
<g>
	<rect x="13" y="29" class="st4" width="74" height="40.8"/>
	<path class="st5" d="M86,30v38.8H14V30H86 M88,28H12v42.8h76V28L88,28z"/>
</g>
<polygon class="st6" points="51.4,49.9 33.7,69 69,69 "/>
<polygon class="st7" points="71.1,40.7 50,69 86,69 86,60.7 "/>
<ellipse class="st8" cx="26.6" cy="41.2" rx="5.6" ry="5.8"/>
<g>
	<path class="st3" d="M64,47.6c0-0.6-0.1-1.3-0.1-2.1c-0.1-0.9-0.2-1.6-0.3-2.3c-0.2-0.8-0.5-1.4-1.1-1.9c-0.6-0.5-1.2-0.8-1.9-0.9
		c-2.3-0.3-5.8-0.4-10.4-0.4c-4.6,0-8.1,0.1-10.4,0.4c-0.7,0.1-1.4,0.4-1.9,0.9c-0.5,0.5-0.9,1.2-1.1,1.9c-0.2,0.7-0.3,1.4-0.3,2.3
		c-0.1,0.9-0.1,1.6-0.1,2.1c0,0.6,0,1.3,0,2.3c0,1,0,1.8,0,2.3c0,0.6,0.1,1.3,0.1,2.1c0.1,0.9,0.2,1.6,0.3,2.3
		c0.2,0.8,0.5,1.4,1.1,1.9c0.6,0.5,1.2,0.8,1.9,0.9c2.3,0.3,5.8,0.4,10.4,0.4c4.6,0,8.1-0.1,10.4-0.4c0.7-0.1,1.4-0.4,1.9-0.9
		c0.5-0.5,0.9-1.2,1.1-1.9c0.2-0.7,0.3-1.4,0.3-2.3c0.1-0.9,0.1-1.6,0.1-2.1c0-0.6,0-1.3,0-2.3C64,48.9,64,48.1,64,47.6L64,47.6z
		 M55.6,50.7l-7.9,5c-0.1,0.1-0.3,0.2-0.5,0.2c-0.2,0-0.3,0-0.5-0.1c-0.3-0.2-0.5-0.5-0.5-0.9V45c0-0.4,0.2-0.7,0.5-0.9
		c0.4-0.2,0.7-0.2,1,0l7.9,5c0.3,0.2,0.5,0.5,0.5,0.8C56.1,50.3,55.9,50.6,55.6,50.7L55.6,50.7z M55.6,50.7"/>
</g>
<polygon class="st9" points="28.6,50.2 13.3,69 44,69 "/>
<path class="st8" d="M55.6,50.7l-7.9,5c-0.1,0.1-0.3,0.2-0.5,0.2c-0.2,0-0.3,0-0.5-0.1c-0.3-0.2-0.5-0.5-0.5-0.9V45
	c0-0.4,0.2-0.7,0.5-0.9c0.4-0.2,0.7-0.2,1,0l7.9,5c0.3,0.2,0.5,0.5,0.5,0.8C56.1,50.3,55.9,50.6,55.6,50.7L55.6,50.7z"/>
</svg>
