<?xml version="1.0" encoding="utf-8"?>
<!-- Generator: Adobe Illustrator 19.0.0, SVG Export Plug-In . SVG Version: 6.00 Build 0)  -->
<svg version="1.1" id="fullwidth_video_copy" xmlns="http://www.w3.org/2000/svg" xmlns:xlink="http://www.w3.org/1999/xlink"
	 x="0px" y="0px" viewBox="0 0 100 100" style="enable-background:new 0 0 100 100;" xml:space="preserve">
<style type="text/css">
	.st0{fill-rule:evenodd;clip-rule:evenodd;fill:#D3D3D3;}
	.st1{fill-rule:evenodd;clip-rule:evenodd;fill:#999999;}
	.st2{fill-rule:evenodd;clip-rule:evenodd;fill:#FFFFFF;}
	.st3{fill:#FF5335;}
	.st4{fill:#53A5C3;}
	.st5{fill-rule:evenodd;clip-rule:evenodd;fill:#A9D2E1;}
	.st6{fill-rule:evenodd;clip-rule:evenodd;fill:#53A5C3;}
	.st7{fill-rule:evenodd;clip-rule:evenodd;fill:#93C7D9;}
	.st8{fill-rule:evenodd;clip-rule:evenodd;fill:#7EBCD2;}
</style>
<path class="st0" d="M0,0h100v100H0V0z"/>
<polygon class="st1" points="100,24.3 88,12 87,78 20.3,78.2 12,88 24.9,100 100,100 "/>
<g>
	<rect x="13" y="13.1" class="st2" width="74" height="74"/>
	<path class="st3" d="M86,14.1v72H14v-72H86 M88,12.1H12v76h76V12.1L88,12.1z"/>
</g>
<rect x="29" y="24" class="st2" width="42" height="8"/>
<rect x="18" y="38" class="st2" width="64" height="4"/>
<g>
	<rect x="13" y="31" class="st2" width="74" height="36"/>
	<path class="st4" d="M86,32v34H14V32H86 M88,30H12v38h76V30L88,30z"/>
</g>
<circle class="st5" cx="41.3" cy="40.7" r="5.7"/>
<polygon class="st6" points="30.7,52 14,66.7 47.4,66.7 "/>
<polygon class="st7" points="51.5,56 36,66 67,66 "/>
<polygon class="st8" points="69.1,46.4 52,66 86.2,66 "/>
<g>
	<path class="st3" d="M63.8,46.7c0-0.6-0.1-1.3-0.1-2.1c-0.1-0.9-0.2-1.6-0.3-2.3c-0.2-0.8-0.5-1.4-1.1-1.9
		c-0.6-0.5-1.2-0.8-1.9-0.9c-2.3-0.3-5.8-0.4-10.4-0.4c-4.6,0-8.1,0.1-10.4,0.4c-0.7,0.1-1.4,0.4-1.9,0.9c-0.5,0.5-0.9,1.2-1.1,1.9
		c-0.2,0.7-0.3,1.4-0.3,2.3c-0.1,0.9-0.1,1.6-0.1,2.1c0,0.6,0,1.3,0,2.3s0,1.8,0,2.3c0,0.6,0.1,1.3,0.1,2.1c0.1,0.9,0.2,1.6,0.3,2.3
		c0.2,0.8,0.5,1.4,1.1,1.9c0.6,0.5,1.2,0.8,1.9,0.9c2.3,0.3,5.8,0.4,10.4,0.4c4.6,0,8.1-0.1,10.4-0.4c0.7-0.1,1.4-0.4,1.9-0.9
		c0.5-0.5,0.9-1.2,1.1-1.9c0.2-0.7,0.3-1.4,0.3-2.3c0.1-0.9,0.1-1.6,0.1-2.1c0-0.6,0-1.3,0-2.3S63.9,47.2,63.8,46.7L63.8,46.7z
		 M55.5,49.8l-7.9,5c-0.1,0.1-0.3,0.2-0.5,0.2c-0.2,0-0.3,0-0.5-0.1C46.2,54.6,46,54.3,46,54V44c0-0.4,0.2-0.7,0.5-0.9
		c0.4-0.2,0.7-0.2,1,0l7.9,5c0.3,0.2,0.5,0.5,0.5,0.8C55.9,49.4,55.8,49.7,55.5,49.8L55.5,49.8z M55.5,49.8"/>
</g>
</svg>
