<?xml version="1.0" encoding="utf-8"?>
<svg version="1.1" id="Slider" xmlns="http://www.w3.org/2000/svg" xmlns:xlink="http://www.w3.org/1999/xlink" x="0px" y="0px"
	 viewBox="0 0 100 100" style="enable-background:new 0 0 100 100;" xml:space="preserve">
<style type="text/css">
	.st0{fill-rule:evenodd;clip-rule:evenodd;fill:#D3D3D3;}
	.st1{fill-rule:evenodd;clip-rule:evenodd;fill:#999999;}
	.st2{fill-rule:evenodd;clip-rule:evenodd;fill:#DBF0F8;}
	.st3{fill:#F85B30;}
	.st4{fill-rule:evenodd;clip-rule:evenodd;fill:#4599B7;}
	.st5{fill-rule:evenodd;clip-rule:evenodd;fill:#6FC3E1;}
	.st6{fill:#FFFFFF;}
	.st7{fill:#6D6E71;stroke:#58595B;stroke-width:4;stroke-linecap:square;stroke-miterlimit:10;}
	.st8{fill:#58595B;}
</style>
<g>
	<path class="st0" d="M0,0h100v100H0V0z"/>
	<polygon class="st1" points="100,34.2 82,16 81,65 37,65 19,66 54,100 100,100 	"/>
	<g>
		<rect x="20" y="17" class="st2" width="61" height="48"/>
		<path class="st3" d="M80,18v46H21V18H80 M82,16H19v50h63V16L82,16z"/>
	</g>
	<polygon class="st4" points="39.1,39.8 21,64 57.3,64 	"/>
	<polygon class="st5" points="55.7,31.6 31.4,64 80,64 	"/>
	<ellipse class="st6" cx="32.7" cy="31.5" rx="4.7" ry="4.5"/>
	<g>
		<line class="st7" x1="15" y1="34" x2="8" y2="41"/>
		<line class="st7" x1="15" y1="48" x2="8" y2="41"/>
	</g>
	<g>
		<line class="st7" x1="86" y1="34" x2="93" y2="41"/>
		<line class="st7" x1="86" y1="48" x2="93" y2="41"/>
	</g>
	<circle class="st3" cx="38" cy="75" r="4"/>
	<g>
		<circle class="st8" cx="50" cy="75" r="4"/>
	</g>
	<g>
		<circle class="st8" cx="62" cy="75" r="4"/>
	</g>
</g>
</svg>
