<?xml version="1.0" encoding="utf-8"?>
<svg version="1.1" id="Social" xmlns="http://www.w3.org/2000/svg" xmlns:xlink="http://www.w3.org/1999/xlink" x="0px" y="0px"
	 viewBox="0 0 100 100" style="enable-background:new 0 0 100 100;" xml:space="preserve">
<style type="text/css">
	.st0{fill-rule:evenodd;clip-rule:evenodd;fill:#D3D3D3;}
	.st1{fill-rule:evenodd;clip-rule:evenodd;fill:#999999;}
	.st2{fill:#FFFFFF;}
	.st3{fill:#F85B30;}
	.st4{fill:#4BB4DA;}
</style>
<g>
	<path class="st0" d="M0,0h100v100H0V0z"/>
	<polygon class="st1" points="100,100 100,39.6 79.5,20.5 75,32 23.5,76.5 46.3,100 100,100 	"/>
	<g>
		<g>
			<rect x="24.5" y="21.5" class="st2" width="54" height="54"/>
			<path class="st3" d="M77.5,22.5v52h-52v-52H77.5 M79.5,20.5h-56v56h56V20.5L79.5,20.5z"/>
		</g>
		<g>
			<path class="st4" d="M59.9,47.9h-5.5v19.9H47V47.9h-5v-6.8l5,0l0-4c0-5.6,1.5-9,8.1-9h5.5v6.9h-3.4c-2.6,0-2.7,1-2.7,2.8V41h6.2
				L59.9,47.9z M59.9,47.9"/>
		</g>
	</g>
</g>
</svg>
