<?xml version="1.0" encoding="utf-8"?>
<svg version="1.1" id="Paralax" xmlns="http://www.w3.org/2000/svg" xmlns:xlink="http://www.w3.org/1999/xlink" x="0px" y="0px"
	 viewBox="0 0 100 100" style="enable-background:new 0 0 100 100;" xml:space="preserve">
<style type="text/css">
	.st0{fill-rule:evenodd;clip-rule:evenodd;fill:#D3D3D3;}
	.st1{fill-rule:evenodd;clip-rule:evenodd;fill:#999999;}
	.st2{fill-rule:evenodd;clip-rule:evenodd;fill:#FFFFFF;}
	.st3{fill:#4BB4DA;}
	.st4{opacity:0.38;}
	.st5{fill:#FF5335;}
	.st6{fill-rule:evenodd;clip-rule:evenodd;fill:#6FC3E1;}
	.st7{opacity:0.63;fill:#6FC3E1;}
	.st8{opacity:0.66;fill:#4BB4DA;}
	.st9{fill:#F85B30;}
</style>
<path class="st0" d="M0,0h100v100H0V0z"/>
<polygon class="st1" points="100,34 91,25 91,79 24,79 18,79 38.3,100 100,100 "/>
<g>
	<rect x="10" y="19" class="st2" width="71" height="52"/>
	<path class="st3" d="M80,20v50H11V20H80 M82,18H9v54h73V18L82,18z"/>
</g>
<g class="st4">
	<rect x="19" y="26" class="st2" width="71" height="52"/>
	<path class="st5" d="M89,27v50H20V27H89 M91,25H18v54h73V25L91,25z"/>
</g>
<circle class="st6" cx="29" cy="37" r="6"/>
<polyline class="st7" points="61,70 19,70 39.4,45 61,70 "/>
<polyline class="st8" points="91,78 29.6,78 59.4,40 91,78 "/>
<g>
	<path class="st9" d="M89,27v50H20V27H89 M91,25H18v54h73V25L91,25z"/>
</g>
</svg>
