<?xml version="1.0" encoding="utf-8"?>
<svg version="1.1" id="Accordion_2_" xmlns="http://www.w3.org/2000/svg" xmlns:xlink="http://www.w3.org/1999/xlink" x="0px"
	 y="0px" viewBox="0 0 100 100" style="enable-background:new 0 0 100 100;" xml:space="preserve">
<style type="text/css">
	.st0{fill-rule:evenodd;clip-rule:evenodd;fill:#D3D3D3;}
	.st1{fill-rule:evenodd;clip-rule:evenodd;fill:#999999;}
	.st2{fill-rule:evenodd;clip-rule:evenodd;fill:#FFFFFF;}
	.st3{fill:#F85B30;}
	.st4{fill-rule:evenodd;clip-rule:evenodd;fill:#4BB4DA;}
	.st5{fill-rule:evenodd;clip-rule:evenodd;fill:#58595B;}
</style>
<g>
	<path class="st0" d="M0,0h100v100H0V0z"/>
	<polygon class="st1" points="100,25.1 88,12 76,15 12,25 12,88 24.2,100 100,100 	"/>
	<g>
		<rect x="13" y="13" class="st2" width="74" height="20"/>
		<path class="st3" d="M86,14v18H14V14H86 M88,12H12v22h76V12L88,12z"/>
	</g>
	<g>
		<rect x="13" y="39" class="st2" width="74" height="48"/>
		<path class="st3" d="M86,40v46H14V40H86 M88,38H12v50h76V38L88,38z"/>
	</g>
	<polygon class="st4" points="29,23 20,17 20,29 	"/>
	<polygon class="st4" points="26,53 32,44 20,44 	"/>
	<rect x="20" y="56" class="st5" width="60" height="3"/>
	<rect x="20" y="63" class="st5" width="60" height="3"/>
	<rect x="20" y="70" class="st5" width="60" height="3"/>
	<rect x="20" y="77" class="st5" width="60" height="3"/>
</g>
</svg>
