<?xml version="1.0" encoding="utf-8"?>
<svg version="1.1" id="SliderConteiner" xmlns="http://www.w3.org/2000/svg" xmlns:xlink="http://www.w3.org/1999/xlink" x="0px"
	 y="0px" viewBox="0 0 100 100" style="enable-background:new 0 0 100 100;" xml:space="preserve">
<style type="text/css">
	.st0{fill-rule:evenodd;clip-rule:evenodd;fill:#D3D3D3;}
	.st1{fill-rule:evenodd;clip-rule:evenodd;fill:#999999;}
	.st2{fill-rule:evenodd;clip-rule:evenodd;fill:#B7E1F0;}
	.st3{fill:#F85B30;}
	.st4{fill-rule:evenodd;clip-rule:evenodd;fill:#4599B7;}
	.st5{fill-rule:evenodd;clip-rule:evenodd;fill:#6FC3E1;}
	.st6{fill:#FFFFFF;}
	.st7{fill:#6D6E71;stroke:#58595B;stroke-width:4;stroke-linecap:square;stroke-miterlimit:10;}
	.st8{fill:#58595B;}
	.st9{fill-rule:evenodd;clip-rule:evenodd;fill:#FFFFFF;}
	.st10{fill-rule:evenodd;clip-rule:evenodd;fill:#F85B30;}
	.st11{fill-rule:evenodd;clip-rule:evenodd;fill:#58595B;}
</style>
<g>
	<path class="st0" d="M0,0h100v100H0V0z"/>
	<polygon class="st1" points="100,34.2 82,17 80,47 49,17 19,65 54,100 100,100 	"/>
	<g>
		<rect x="20" y="18" class="st2" width="28" height="46"/>
		<path class="st3" d="M47,19v44H21V19H47 M49,17h-2H21h-2v2v44v2h2h26h2v-2V19V17L49,17z"/>
	</g>
	<polygon class="st4" points="28.1,40.7 21,54 21,63 30.6,63 35.1,54 	"/>
	<polygon class="st5" points="42.1,30.6 22.9,63 47,63 47,39 	"/>
	<ellipse class="st6" cx="28.7" cy="26.5" rx="4.7" ry="4.5"/>
	<g>
		<line class="st7" x1="15" y1="34" x2="8" y2="41"/>
		<line class="st7" x1="15" y1="48" x2="8" y2="41"/>
	</g>
	<g>
		<line class="st7" x1="86" y1="34" x2="93" y2="41"/>
		<line class="st7" x1="86" y1="48" x2="93" y2="41"/>
	</g>
	<circle class="st3" cx="38" cy="75" r="4"/>
	<g>
		<circle class="st8" cx="50" cy="75" r="4"/>
	</g>
	<g>
		<circle class="st8" cx="62" cy="75" r="4"/>
	</g>
	<g>
		<rect x="53" y="18" class="st2" width="28" height="25"/>
		<path class="st3" d="M80,19v23H54V19H80 M82,17h-2H54h-2v2v23v2h2h26h2v-2V19V17L82,17z"/>
	</g>
	<g>
		<rect x="53" y="41" class="st9" width="28" height="23"/>
		<path class="st3" d="M80,42v21H54V42H80 M82,40h-2H54h-2v2v21v2h2h26h2v-2V42V40L82,40z"/>
	</g>
	<g>
		<rect x="63" y="56" class="st10" width="15" height="5"/>
	</g>
	<rect x="56" y="46" class="st11" width="22" height="3"/>
	<rect x="56" y="51" class="st11" width="22" height="3"/>
	<polygon class="st5" points="59,29.6 78.1,42 54,42 54,32.8 	"/>
	<ellipse class="st6" cx="71.2" cy="27" rx="4.2" ry="4"/>
	<polygon class="st4" points="72.9,32.9 80,38.3 80,42 70.4,42 60.9,42 	"/>
</g>
</svg>
