<?xml version="1.0" encoding="utf-8"?>
<!-- Generator: Adobe Illustrator 19.0.0, SVG Export Plug-In . SVG Version: 6.00 Build 0)  -->
<svg version="1.1" id="tabs" xmlns="http://www.w3.org/2000/svg" xmlns:xlink="http://www.w3.org/1999/xlink" x="0px" y="0px"
	 viewBox="0 0 100 100" style="enable-background:new 0 0 100 100;" xml:space="preserve">
<style type="text/css">
	.st0{fill-rule:evenodd;clip-rule:evenodd;fill:#D3D3D3;}
	.st1{fill-rule:evenodd;clip-rule:evenodd;fill:#999999;}
	.st2{fill:#EA8E55;}
	.st3{fill:#999999;}
	.st4{fill-rule:evenodd;clip-rule:evenodd;fill:#FFFFFF;}
	.st5{fill:#6D6E71;}
	.st6{fill:#FF5335;}
	.st7{fill-rule:evenodd;clip-rule:evenodd;fill:#737373;}
</style>
<path class="st0" d="M0,0h100v100H0V0z"/>
<polygon class="st1" points="100,24.3 88,12 87,78 20.3,78.2 12,90 22.9,100 100,100 "/>
<circle class="st2" cx="38" cy="78" r="4"/>
<g>
	<circle class="st3" cx="50" cy="78" r="4"/>
</g>
<g>
	<circle class="st3" cx="62" cy="78" r="4"/>
</g>
<g>
	<rect x="68" y="14" class="st4" width="18" height="16"/>
	<path class="st5" d="M84,16v12H70V16H84 M88,12H66v20h22V12L88,12z"/>
</g>
<g>
	<rect x="43" y="14" class="st4" width="18" height="16"/>
	<path class="st5" d="M59,16v12H45V16H59 M63,12H41v20h22V12L63,12z"/>
</g>
<g>
	<polygon class="st4" points="14,88 14,12 36,12 36,30 86,30 86,88 	"/>
	<path class="st6" d="M34,14v14v4l4,0l46,0v54H16V14H34 M38,10H12v80h76V28l-50,0V10L38,10z"/>
</g>
<rect x="22" y="40" class="st7" width="56" height="8"/>
<rect x="22" y="54" class="st7" width="56" height="4"/>
<rect x="22" y="64" class="st7" width="56" height="4"/>
<rect x="22" y="74" class="st7" width="45.7" height="4"/>
</svg>
