<?xml version="1.0" encoding="utf-8"?>
<svg version="1.1" id="TabsConteiner" xmlns="http://www.w3.org/2000/svg" xmlns:xlink="http://www.w3.org/1999/xlink" x="0px"
	 y="0px" viewBox="0 0 100 100" style="enable-background:new 0 0 100 100;" xml:space="preserve">
<style type="text/css">
	.st0{fill-rule:evenodd;clip-rule:evenodd;fill:#D3D3D3;}
	.st1{fill-rule:evenodd;clip-rule:evenodd;fill:#999999;}
	.st2{fill-rule:evenodd;clip-rule:evenodd;fill:#FFFFFF;}
	.st3{fill:#F85B30;}
	.st4{fill:#4BB4DA;}
	.st5{fill-rule:evenodd;clip-rule:evenodd;fill:#58595B;}
	.st6{opacity:0.51;fill-rule:evenodd;clip-rule:evenodd;fill:#FFFFFF;}
</style>
<g>
	<path class="st0" d="M0,0h100v100H0V0z"/>
	<polygon class="st1" points="100,24.3 88,12 87,78 20.3,78.2 12,88 24.6,100 100,100 	"/>
	<g>
		<rect x="13" y="13.1" class="st2" width="74" height="74"/>
		<path class="st3" d="M86,14.1v72H14v-72H86 M88,12.1H12v76h76V12.1L88,12.1z"/>
	</g>
	<g>
		<rect x="65" y="23" class="st2" width="15" height="15"/>
		<path class="st3" d="M79,24v13H66V24H79 M81,22H64v17h17V22L81,22z"/>
	</g>
	<g>
		<rect x="45.2" y="23" class="st2" width="14.8" height="15"/>
		<path class="st3" d="M59,24v13H46.2V24H59 M61,22H44.2v17H61V22L61,22z"/>
	</g>
	<g>
		<polygon class="st2" points="20,80 20,21 40,21 40,35 80,35 80,80 		"/>
		<path class="st4" d="M39,22v12v2h2h38v43H21V22H39 M41,20H19v61h62V34H41V20L41,20z"/>
	</g>
	<rect x="26" y="41" class="st5" width="37" height="5"/>
	<rect x="26" y="50" class="st5" width="48" height="3"/>
	<rect x="26" y="57" class="st5" width="48" height="3"/>
	<rect x="26" y="64" class="st5" width="48" height="3"/>
	<rect x="26" y="71" class="st5" width="48" height="3"/>
	<rect x="17" y="16" class="st6" width="67" height="68"/>
</g>
</svg>
